<svg xmlns="http://www.w3.org/2000/svg" viewBox="0 0 53.13 49.85"><defs><style>.cls-1{fill:#070c0d;}.cls-2{fill:#2098ac;}.cls-3{fill:#34ecce;}.cls-4{fill:#0f4138;}.cls-5{fill:#fefefe;}.cls-6{fill:#a7a7a7;}</style></defs><g id="Layer_2" data-name="Layer 2"><g id="Layer_1-2" data-name="Layer 1"><path class="cls-1" d="M25.71,49.68C18.94,50.34,13,48,7.24,45.07s-7.83-8-7.1-14.4C.5,27.47,1,24.57,2.9,22c.57-.8.27-1.62.1-2.51-.82-4.15-.39-8.08,3.16-10.88C14.46,2,23.52-2,34.39,1.07c4.49,1.29,8.14,3.52,8,9,0,1.28.8,1,1.58,1.08,5.16.27,8.79,4.3,9.15,9.67s-2.15,9.37-4.65,13.56c-3.2,5.38-7.73,9.52-12.72,13.15A13.47,13.47,0,0,1,25.71,49.68ZM7,37.3a2.53,2.53,0,0,0,0,3.61,2.52,2.52,0,0,0,3.24.06c1-.63,1.23-1.88,1.33-3,2.68-2.34,3.05-2.34,3.61,0-1,1.9-1.9,4.23-.51,5.86,1.59,1.88,4.23,1.92,6.58,1,3.4-1.38,3.82-4.46,1-6.94-.36-.81-1.89-.34-1.79-1.63.09-1.11.93-1.46,1.83-1.61,1.22-.21,2.12-.71,1.92-2.09-.22-1.54-1.4-1.68-2.68-1.62a4.86,4.86,0,0,0-3.33,1,10.55,10.55,0,0,1-8.09,2.83C8.42,34.6,7,35.2,7,37.3ZM36.42,6C29,2,21.66,3,14.63,6.72,12,8.1,9,9.54,8,12.92a15.88,15.88,0,0,0-1.23,3c-.26,1.23-.06,2.23,1.71,1.51A39.16,39.16,0,0,1,31.94,15.3c3.13.69,4.62-1.24,5.83-3.4A4.12,4.12,0,0,0,36.42,6ZM3.16,34.49c1.89-1.86,4-2.79,4.46-4.89a5.71,5.71,0,0,1,2.27-3.24c6.25-5.47,13.49-5.26,20.89-3.54,3.64.85,8,7.41,6.73,10.71-1.61,4.27-1.82,10.2-8.72,10a2.47,2.47,0,0,0-.57.17c-.91.22-1.93.62-1.79,1.64.17,1.3,1.5.82,2.17.65,4.8-1.2,9-3,11-8.25,1.15-2.94,1.07-5.77,1.09-8.69,0-5.21-3.5-9.11-8.56-10.09-3.58-.7-7-.11-10.5.31-4.54.53-8.73,1.79-12.28,4.63C6.19,26.48,3.53,29.45,3.16,34.49ZM21,27.19c1.61,0,3-.09,4.25.66C28,29.43,28.67,32,27.54,35.56c-.62,2-.53,4.25,1.46,5.08s3.74-.26,4.07-2.85a21.75,21.75,0,0,1,1.24-3.3c.94-3.06-1.16-7.69-4.09-8.87-5.79-2.33-11.39-1-16.76,1.39-1.14.5-3.61,1.72-2.75,3.14,1,1.7,3,.11,4.4-.66C17.07,28.41,18.7,26.59,21,27.19Zm23.87,4.86c3.32-3.57,4.85-7.15,4.48-11.44-.29-3.36-2.86-6-5.54-5.81-2,.16-4.26,2.81-3.24,3.79C44.31,22.17,44.54,26.81,44.91,32.05Z"/><path class="cls-2" d="M3.16,34.49c.37-5,3-8,6.2-10.54,3.55-2.84,7.74-4.1,12.28-4.63,3.51-.42,6.92-1,10.5-.31,5.06,1,8.6,4.88,8.56,10.09,0,2.92.06,5.75-1.09,8.69-2,5.24-6.21,7.05-11,8.25-.67.17-2,.65-2.17-.65-.14-1,.88-1.42,1.79-1.64a2.47,2.47,0,0,1,.57-.17c6.9.15,7.11-5.78,8.72-10,1.24-3.3-3.09-9.86-6.73-10.71-7.4-1.72-14.64-1.93-20.89,3.54A5.71,5.71,0,0,0,7.62,29.6C7.16,31.7,5.05,32.63,3.16,34.49Z"/><path class="cls-3" d="M8,12.92c1-3.38,4-4.82,6.66-6.2C21.66,3,29,2,36.42,6c-1.48,2.81-3.26,4.88-7,4.66A69.43,69.43,0,0,0,18.3,11C14.78,11.39,11.61,13.44,8,12.92Z"/><path class="cls-2" d="M8,12.92c3.64.52,6.81-1.53,10.33-1.9a69.43,69.43,0,0,1,11.15-.39c3.71.22,5.49-1.85,7-4.66a4.13,4.13,0,0,1,1.35,5.93c-1.21,2.16-2.7,4.09-5.83,3.4A39.16,39.16,0,0,0,8.45,17.44c-1.77.72-2-.28-1.71-1.51A15.88,15.88,0,0,1,8,12.92Z"/><path class="cls-4" d="M21,27.19c-2.34-.6-4,1.22-5.93,2.3-1.39.77-3.38,2.36-4.4.66-.86-1.42,1.61-2.64,2.75-3.14,5.37-2.35,11-3.72,16.76-1.39,2.93,1.18,5,5.81,4.09,8.87a21.75,21.75,0,0,0-1.24,3.3c-.33,2.59-2,3.71-4.07,2.85s-2.08-3.11-1.46-5.08c1.13-3.57.41-6.13-2.25-7.71C24,27.1,22.65,27.17,21,27.19Z"/><path class="cls-5" d="M15.19,37.88c-.56-2.3-.93-2.3-3.61,0-1.54-.16-3.16.27-4.6-.62,0-2.1,1.44-2.7,3.17-2.66a10.55,10.55,0,0,0,8.09-2.83,4.86,4.86,0,0,1,3.33-1c1.28-.06,2.46.08,2.68,1.62.2,1.38-.7,1.88-1.92,2.09-.9.15-1.74.5-1.83,1.61-.1,1.29,1.43.82,1.79,1.63.23,1.94-1,2.68-2.57,3.29C16.55,42.28,15.86,40.14,15.19,37.88Z"/><path class="cls-2" d="M44.91,32.05c-.37-5.24-.6-9.88-4.3-13.46-1-1,1.29-3.63,3.24-3.79,2.68-.21,5.25,2.45,5.54,5.81C49.76,24.9,48.23,28.48,44.91,32.05Z"/><path class="cls-6" d="M15.19,37.88c.67,2.26,1.36,4.4,4.53,3.19,1.58-.61,2.8-1.35,2.57-3.29,2.79,2.48,2.37,5.56-1,6.94-2.35.94-5,.9-6.58-1C13.29,42.11,14.14,39.78,15.19,37.88Z"/><path class="cls-6" d="M7,37.3c1.44.89,3.06.46,4.6.62-.1,1.17-.3,2.42-1.33,3A2.52,2.52,0,0,1,7,40.91,2.53,2.53,0,0,1,7,37.3Z"/></g></g></svg>