<?xml version="1.0" encoding="utf-8"?>
<!-- Generator: Adobe Illustrator 24.3.0, SVG Export Plug-In . SVG Version: 6.00 Build 0)  -->
<svg version="1.1" id="Layer_1" xmlns="http://www.w3.org/2000/svg" xmlns:xlink="http://www.w3.org/1999/xlink" x="0px" y="0px"
	 viewBox="0 0 246 246" style="enable-background:new 0 0 246 246;" xml:space="preserve">
<style type="text/css">
	.st0{fill:#040201;}
	.st1{fill:#1E1F25;}
	.st2{fill:#3F484E;}
	.st3{fill:#4A646D;}
	.st4{fill:#95C9DC;}
	.st5{fill:#FFFDFE;}
</style>
<g id="Layer_2_1_">
	<g id="Layer_1-2">
		<path class="st0" d="M32.1,245.9c-1-7.7-2.3-15.3-3.1-23c-2.5-22.3-1.1-44.6-0.8-66.9c0.1-4.8-0.3-8.5-3.8-12.9
			c-7.9-9.8-10-21.6-6.8-34c3.3-12.6,9.8-23.3,20.6-30.9c1.5-1.1,2.8-2.2,3.2-4.2c1.6-8.9,6.4-16,13-22c13.8-12.6,28-25.5,47.6-27.3
			c17-1.6,34.4-3,50.9,2.5c14.4,4.8,24.2,15,30.3,29.2c6,13.9,10.4,28,11.7,43.1c0.4,4,1.7,5.6,6,5.7c7.3,0.3,14.5,1.9,21.6,3.9
			c6.3,1.8,9.6,6,11.6,11.9c3.6,11,4.9,22.4,5.8,33.9c1.7,22.2,4.6,44.4,1.1,66.7c-1.3,8.3-3.9,16.1-6,24.1h-19
			c-0.3-1.9,1.4-2,2.4-2.8c3.1-2.3,5.1-5.8,5.5-9.7c4.6-28.9,2.7-57.7,0-86.5c-0.8-5.4-1.3-10.8-2.3-16.1c-0.8-4.3-3.5-7.6-8.1-8.3
			c-4.1-0.6-8.3-0.5-12.4-0.9c-2.3-0.2-2.9,0.7-2.7,2.8c0.6,5.8,1.2,11.5,1.7,17.3c0,1-0.2,2-0.1,3c1.7,31.3,0.3,62.6-2,93.9
			c-0.1,2.4,0.2,4.9,0.9,7.2h-16c1.8-9.1,0.8-18.2,0.8-27.3c0.1-24.1,0.1-48.2-0.1-72.3c-0.1-17.2,0.4-34.4-4.6-51.2
			c-2.9-9.8-3.1-20.4-9-29.3c-3.6-13.8-21-22.9-32.9-23.7c-6.6-0.4-13.3-0.3-20-0.3c-15.2-0.1-27.9,7-40.3,14.5
			c-4.4,2.7-7.6,7.5-11.5,11.5c18.2-0.1,36.1-0.6,53.6,3.1c15.3,3.2,24.9,14,28.3,28c4.3,17.3-0.6,33.7-12.8,47.3
			c-2.4,2.6-5.3,4.6-8.5,5.9c-25.8,11.5-52,13.3-78.6,2.9c-2.2-0.9-3.4-0.9-3.5,1.9c-0.2,6.3-1.5,12.6-1,18.9
			c-0.3,2.8-0.7,5.6-0.9,8.4c-1.5,20.9,0.9,41.4,5.9,61.6L32.1,245.9z M31.6,110.8c-3.4,12.8,2.8,21.1,13.7,26.8
			C60,145.5,76.5,149,93,148c24.2-1.6,42.6-17.4,39.9-43.8c-1.1-11.3-6.4-16.4-18-17c-2.6-0.7-5.1-1.5-7.7-1.9
			C92.6,83,78.1,84,63.5,85.4C54.9,86.2,47.3,90.1,41,96C36.6,100.1,32.5,104.4,31.6,110.8z"/>
		<path class="st1" d="M48.1,245.9c-5-20.3-7.4-40.7-5.9-61.6c0.2-2.8,0.6-5.6,0.9-8.4c0.7,1.5,1.2,3.1,1.6,4.7
			c0.8,7.4,3.5,14.2,5.9,21.1c2.9,8.3,8.5,14.3,15.9,19.1c8.7,5.6,18.4,6.9,28.2,7c14.9,0.1,29.9,0,44.3-5.3
			c3.6-1.1,6.9-3.1,9.6-5.6c7.1-6.9,10.1-16.1,13.3-24.9c12.2-33.3,17.1-67.5,11.5-102.9c-1.2-7.7-3.2-15.3-3.3-23.1
			c5.9,8.9,6.1,19.5,9,29.3c5,16.8,4.4,34,4.6,51.2c0.2,24.1,0.2,48.2,0.1,72.3c-0.1,9.1,0.9,18.3-0.8,27.3L48.1,245.9z"/>
		<path class="st1" d="M199,245.9c-0.7-2.3-1.1-4.8-0.9-7.2c2.3-31.3,3.7-62.5,2-93.9c-0.1-1,0.1-2,0.1-3c8.3-0.9,16.6,0.9,23.7,5.1
			c2.7,28.8,4.6,57.7,0,86.5c-0.4,3.8-2.4,7.3-5.5,9.7c-0.9,0.7-2.7,0.9-2.4,2.8L199,245.9z"/>
		<path class="st2" d="M170.1,65.8c0.1,7.9,2.1,15.5,3.3,23.1c5.6,35.4,0.7,69.7-11.5,102.9c-3.2,8.7-6.2,17.9-13.3,24.9
			c-2.8,2.6-6,4.5-9.6,5.6c-14.4,5.3-29.4,5.4-44.3,5.3c-9.8-0.1-19.5-1.4-28.2-7c-7.4-4.8-13-10.8-15.9-19.1
			c-2.4-6.9-5.1-13.7-5.9-21.1c-0.4-1.6-0.9-3.2-1.6-4.7c-0.5-6.4,0.8-12.6,1-18.9c0.1-2.9,1.3-2.8,3.5-1.9
			c26.6,10.4,52.7,8.6,78.6-2.9c3.2-1.4,6.1-3.4,8.5-5.9c12.2-13.6,17.1-30,12.8-47.3c-3.5-14-13.1-24.8-28.3-28
			c-17.5-3.7-35.4-3.2-53.6-3.1c3.9-4,7.1-8.8,11.5-11.5c12.4-7.5,25.1-14.6,40.3-14.5c6.7,0,13.3-0.1,20,0.3
			C149.1,42.9,166.6,52,170.1,65.8z"/>
		<path class="st3" d="M114.9,87.1c11.6,0.6,16.9,5.7,18,17c2.7,26.5-15.7,42.3-39.9,43.9c-16.5,1.1-33-2.5-47.6-10.3
			c-10.9-5.7-17.1-14-13.7-26.8c2.4,6.5,7.1,9.7,14,10.1c2.3,0.1,4.6,0.5,7,0.6c16.2,1.3,32.5,3.3,48.8,0.4
			C118.4,119,125.6,100.4,114.9,87.1z"/>
		<path class="st4" d="M114.9,87.1c10.8,13.3,3.6,31.9-13.5,34.9c-16.3,2.9-32.5,0.8-48.8-0.4c-2.3-0.2-4.6-0.5-7-0.6
			c-6.9-0.3-11.6-3.6-14-10.1c0.8-6.4,5-10.7,9.4-14.8c6.3-5.9,13.9-9.8,22.5-10.6c14.6-1.4,29.1-2.4,43.7-0.2
			C109.8,85.6,112.3,86.4,114.9,87.1z M57.1,107.1c10.2-0.8,20.8-1,31.4-2.7c5.5-0.9,7.9-3.6,7.7-8c-0.5-4.6-4.3-8.2-8.9-8.4
			c-4.2-0.2-8.4-0.6-12.5,0c-8.8,1-17.5,2.3-25.2,7.3c-2.9,1.6-4.2,5.1-3.2,8.2c1,3.5,3.8,3.8,6.8,3.6
			C54.3,107,55.5,107.1,57.1,107.1L57.1,107.1z"/>
		<path class="st2" d="M223.8,147c-7.1-4.2-15.5-6-23.7-5.1c-0.6-5.8-1.1-11.5-1.7-17.3c-0.2-2.2,0.4-3,2.7-2.8
			c4.1,0.4,8.3,0.3,12.4,0.9c4.6,0.7,7.2,4,8.1,8.3C222.6,136.2,223.1,141.6,223.8,147z"/>
		<path class="st5" d="M57.1,107.1c-1.6,0-2.8-0.1-4,0c-3,0.2-5.8,0-6.8-3.6c-1-3.1,0.3-6.6,3.2-8.2c7.6-5,16.4-6.3,25.2-7.4
			c4.1-0.5,8.3-0.2,12.5,0c4.7,0.2,8.5,3.8,8.9,8.4c0.2,4.4-2.2,7.2-7.7,8C78,106,67.3,106.3,57.1,107.1z"/>
	</g>
</g>
</svg>
