<svg xmlns="http://www.w3.org/2000/svg" viewBox="0 0 246 246"><defs><style>.cls-1{fill:#fff;}.cls-2{fill:#040201;}.cls-3{fill:#5e2614;}.cls-4{fill:#72491e;}.cls-5{fill:#4a646d;}.cls-6{fill:#95c9dc;}.cls-7{fill:#fffdfe;}</style></defs><g id="Layer_2" data-name="Layer 2"><g id="Layer_1-2" data-name="Layer 1"><path class="cls-1" d="M32.07,245.91c-9.49,0-19-.16-28.48.08-3,.08-3.59-.6-3.58-3.58Q.18,142.24.09,42.06C.09,29.24.21,16.41,0,3.59,0,.6.61,0,3.59,0Q104.27.18,205,.09c12.49,0,25,.12,37.47-.09,3,0,3.58.61,3.58,3.59q-.17,100.92-.08,201.85c0,12.65-.07,25.31.06,38,0,2.15-.4,2.74-2.57,2.55-2.81-.24-5.65-.05-8.48-.05,2.09-8,4.76-15.89,6-24.14,3.48-22.31.59-44.5-1.14-66.71-.9-11.46-2.24-22.84-5.82-33.87-1.93-5.94-5.31-10.16-11.56-11.92-7.07-2-14.25-3.65-21.55-3.93-4.34-.16-5.67-1.73-6-5.74-1.31-15-5.78-29.2-11.74-43.09-6.08-14.2-15.85-24.41-30.25-29.2-16.56-5.51-34-4.11-50.94-2.53C82.33,26.6,68.18,39.45,54.34,52.11c-6.53,6-11.33,13.07-13,22-.36,2-1.64,3.1-3.18,4.2-10.8,7.67-17.28,18.28-20.58,30.92-3.23,12.39-1.09,24.21,6.79,34,3.49,4.33,3.86,8.08,3.79,12.86-.33,22.29-1.69,44.6.76,66.85C29.81,230.58,31,238.23,32.07,245.91Z"/><path class="cls-2" d="M32.07,245.91c-1.05-7.68-2.26-15.33-3.11-23-2.45-22.25-1.09-44.56-.76-66.85.07-4.78-.3-8.53-3.79-12.86-7.88-9.77-10-21.59-6.79-34,3.3-12.64,9.78-23.25,20.58-30.92,1.54-1.1,2.82-2.19,3.18-4.2,1.63-8.89,6.43-16,13-22C68.18,39.45,82.33,26.6,102,24.78c17-1.58,34.38-3,50.94,2.53,14.4,4.79,24.17,15,30.25,29.2,6,13.89,10.43,28,11.74,43.09.35,4,1.68,5.58,6,5.74,7.3.28,14.48,1.94,21.55,3.93,6.25,1.76,9.63,6,11.56,11.92,3.58,11,4.92,22.41,5.82,33.87,1.73,22.21,4.62,44.4,1.14,66.71-1.28,8.25-3.95,16.11-6,24.14h-19c-.34-1.88,1.42-2,2.37-2.75a14.2,14.2,0,0,0,5.52-9.68c4.58-28.85,2.74-57.68,0-86.52-.75-5.36-1.28-10.76-2.32-16.07-.84-4.33-3.46-7.61-8.06-8.28-4.08-.59-8.26-.5-12.38-.87-2.29-.2-2.93.68-2.69,2.84.64,5.75,1.16,11.52,1.73,17.28,0,1-.17,2-.12,3,1.74,31.33.34,62.6-2,93.85a21.14,21.14,0,0,0,.95,7.22H183c1.75-9.06.79-18.22.84-27.33q.22-36.12-.06-72.26c-.14-17.18.37-34.37-4.59-51.21-2.88-9.81-3.15-20.39-9-29.28-3.57-13.78-21-22.92-32.9-23.66-6.64-.42-13.31-.31-20-.35-15.18-.09-27.93,7-40.29,14.5-4.43,2.69-7.58,7.5-11.48,11.52,18.24-.07,36.08-.61,53.6,3.09,15.26,3.23,24.86,14,28.32,28,4.29,17.29-.62,33.66-12.79,47.25a24.77,24.77,0,0,1-8.52,5.94c-25.82,11.54-52,13.32-78.56,2.95-2.18-.85-3.41-.95-3.49,1.91-.17,6.32-1.51,12.58-1,18.93-.32,2.8-.72,5.59-.92,8.39-1.51,20.87.94,41.36,5.93,61.61Zm-.42-135.09c-3.35,12.79,2.82,21.09,13.72,26.82A89,89,0,0,0,93,148c24.15-1.6,42.55-17.4,39.89-43.84-1.13-11.31-6.42-16.43-18-17-2.56-.65-5.09-1.53-7.69-1.92C92.63,83,78.06,84,63.55,85.39,54.92,86.22,47.35,90.09,41,96,36.64,100.1,32.5,104.45,31.65,110.82Z"/><path class="cls-3" d="M48.06,245.91c-5-20.25-7.44-40.74-5.93-61.61.2-2.8.6-5.59.92-8.39a23,23,0,0,1,1.57,4.68c.83,7.36,3.49,14.21,5.93,21.09,2.94,8.25,8.55,14.32,15.92,19.09,8.67,5.62,18.43,6.92,28.19,7,14.91.08,29.89,0,44.31-5.33a25.35,25.35,0,0,0,9.63-5.65c7.06-6.92,10.08-16.14,13.29-24.85C174.12,158.64,179,124.41,173.43,89c-1.21-7.67-3.24-15.28-3.3-23.14,5.87,8.89,6.14,19.47,9,29.28,5,16.84,4.45,34,4.59,51.21q.28,36.13.06,72.26c-.05,9.11.91,18.27-.84,27.33Z"/><path class="cls-3" d="M199,245.91a21.14,21.14,0,0,1-.95-7.22c2.33-31.25,3.73-62.52,2-93.85-.05-1,.08-2,.12-3a38.3,38.3,0,0,1,23.72,5.1c2.74,28.84,4.58,57.67,0,86.52a14.2,14.2,0,0,1-5.52,9.68c-.95.71-2.71.87-2.37,2.75Z"/><path class="cls-4" d="M170.13,65.83c.06,7.86,2.09,15.47,3.3,23.14,5.6,35.44.69,69.67-11.54,102.94-3.21,8.71-6.23,17.93-13.29,24.85a25.35,25.35,0,0,1-9.63,5.65c-14.42,5.29-29.4,5.41-44.31,5.33-9.76-.05-19.52-1.35-28.19-7-7.37-4.77-13-10.84-15.92-19.09-2.44-6.88-5.1-13.73-5.93-21.09a23,23,0,0,0-1.57-4.68c-.51-6.35.83-12.61,1-18.93.08-2.86,1.31-2.76,3.49-1.91,26.6,10.37,52.74,8.59,78.56-2.95a24.77,24.77,0,0,0,8.52-5.94c12.17-13.59,17.08-30,12.79-47.25-3.46-14-13.06-24.77-28.32-28-17.52-3.7-35.36-3.16-53.6-3.09,3.9-4,7.05-8.83,11.48-11.52,12.36-7.51,25.11-14.59,40.29-14.5,6.66,0,13.33-.07,20,.35C149.15,42.91,166.56,52.05,170.13,65.83Z"/><path class="cls-5" d="M114.86,87.09c11.6.6,16.89,5.72,18,17C135.54,130.56,117.14,146.36,93,148a89,89,0,0,1-47.62-10.32c-10.9-5.73-17.07-14-13.72-26.82,2.41,6.48,7.13,9.74,14,10.09,2.32.12,4.63.46,7,.64,16.24,1.26,32.48,3.3,48.75.42C118.42,119,125.61,100.37,114.86,87.09Z"/><path class="cls-6" d="M114.86,87.09c10.75,13.28,3.56,31.87-13.52,34.88-16.27,2.88-32.51.84-48.75-.42-2.32-.18-4.63-.52-7-.64-6.86-.35-11.58-3.61-14-10.09.85-6.37,5-10.72,9.36-14.8,6.34-5.93,13.91-9.8,22.54-10.63C78.06,84,92.63,83,107.17,85.17,109.77,85.56,112.3,86.44,114.86,87.09Zm-57.72,20c10.17-.75,20.83-1,31.37-2.67,5.5-.87,7.91-3.59,7.67-8a9.37,9.37,0,0,0-8.93-8.43c-4.15-.2-8.38-.56-12.47,0C66,89,57.25,90.33,49.62,95.3a7,7,0,0,0-3.2,8.2c1,3.53,3.77,3.76,6.77,3.56C54.35,107,55.52,107.05,57.14,107.05Z"/><path class="cls-4" d="M223.83,147a38.3,38.3,0,0,0-23.72-5.1c-.57-5.76-1.09-11.53-1.73-17.28-.24-2.16.4-3,2.69-2.84,4.12.37,8.3.28,12.38.87,4.6.67,7.22,4,8.06,8.28C222.55,136.2,223.08,141.6,223.83,147Z"/><path class="cls-7" d="M57.14,107.05c-1.62,0-2.79-.06-4,0-3,.2-5.79,0-6.77-3.56a7,7,0,0,1,3.2-8.2c7.63-5,16.42-6.29,25.16-7.41,4.09-.53,8.32-.17,12.47,0a9.37,9.37,0,0,1,8.93,8.43c.24,4.44-2.17,7.16-7.67,8C78,106,67.31,106.3,57.14,107.05Z"/></g></g></svg>