<?xml version="1.0" encoding="utf-8"?>
<!-- Generator: Adobe Illustrator 24.3.0, SVG Export Plug-In . SVG Version: 6.00 Build 0)  -->
<svg version="1.1" id="Layer_1" xmlns="http://www.w3.org/2000/svg" xmlns:xlink="http://www.w3.org/1999/xlink" x="0px" y="0px"
	 viewBox="0 0 1200 630" style="enable-background:new 0 0 1200 630;" xml:space="preserve">
<style type="text/css">
	.st0{fill:#070C0D;}
	.st1{fill:#2098AC;}
	.st2{fill:#34ECCE;}
	.st3{fill:#0F4138;}
	.st4{fill:#FEFEFE;}
	.st5{fill:#A7A7A7;}
	.st6{font-family:'SourceSansPro-ExtraLight';}
	.st7{font-size:139.2634px;}
	.st8{font-family:'SourceSansPro-Regular';}
	.st9{font-size:58.535px;}
</style>
<g>
	<g id="Layer_1-2">
		<path class="st0" d="M231.8,454.8c-40.3,3.9-75.6-10-109.8-27.4s-46.6-47.6-42.2-85.6c2.1-19,5.1-36.3,16.4-51.5
			c3.4-4.8,1.6-9.6,0.6-14.9c-4.9-24.7-2.3-48,18.8-64.7c49.3-39.3,103.2-63.1,167.8-44.8c26.7,7.7,48.4,20.9,47.6,53.5
			c0,7.6,4.8,5.9,9.4,6.4c30.7,1.6,52.3,25.6,54.4,57.5s-12.8,55.7-27.6,80.6c-19,32-46,56.6-75.6,78.2
			C274.1,454,252.6,458.6,231.8,454.8z M120.6,381.2c-5.9,5.8-6,15.3-0.2,21.3c0.1,0.1,0.1,0.1,0.2,0.2c5.5,4.8,13.6,4.9,19.3,0.4
			c5.9-3.7,7.3-11.2,7.9-17.8c15.9-13.9,18.1-13.9,21.5,0c-5.9,11.3-11.3,25.2-3,34.8c9.5,11.2,25.2,11.4,39.1,5.9
			c20.2-8.2,22.7-26.5,5.9-41.3c-2.1-4.8-11.2-2-10.6-9.7c0.5-6.6,5.5-8.7,10.9-9.6c7.3-1.2,12.6-4.2,11.4-12.4
			c-1.3-9.2-8.3-10-15.9-9.6c-7.1-0.5-14.2,1.6-19.8,5.9c-12.9,12.2-30.4,18.3-48.1,16.8C129,365.1,120.6,368.7,120.6,381.2z
			 M295.5,195.1c-44.1-23.8-87.8-17.8-129.6,4.3c-15.6,8.2-33.5,16.8-39.4,36.9c-3,5.7-5.5,11.7-7.3,17.8c-1.5,7.3-0.4,13.3,10.2,9
			c44.1-18.4,92.8-22.9,139.5-12.7c18.6,4.1,27.5-7.4,34.7-20.2c7.6-11.2,4.8-26.4-6.4-34C296.6,195.7,296.1,195.4,295.5,195.1z
			 M97.7,364.5c11.2-11.1,23.8-16.6,26.5-29.1c2.1-7.8,6.8-14.7,13.5-19.3c37.2-32.5,80.2-31.3,124.2-21c21.6,5.1,47.6,44.1,40,63.7
			c-9.6,25.4-10.8,60.6-51.8,59.5c-1.2,0.2-2.3,0.5-3.4,1c-5.4,1.3-11.5,3.7-10.6,9.8c1,7.7,8.9,4.9,12.9,3.9
			c28.5-7.1,53.5-17.8,65.4-49.1c6.8-17.5,6.4-34.3,6.5-51.7c0-31-20.8-54.2-50.9-60c-21.3-4.2-41.6-0.7-62.4,1.8
			c-27,3.2-51.9,10.6-73,27.5C115.8,316.8,99.9,334.5,97.7,364.5z M203.8,321.1c9.6,0,17.8-0.5,25.3,3.9
			c16.4,9.4,20.3,24.7,13.6,45.8c-3.7,11.9-3.2,25.3,8.7,30.2c11.8,4.9,22.2-1.5,24.2-16.9c1.9-6.7,4.4-13.3,7.4-19.6
			c5.6-18.2-6.9-45.7-24.3-52.7c-34.4-13.9-67.7-5.9-99.6,8.3c-6.8,3-21.5,10.2-16.4,18.7c5.9,10.1,17.8,0.7,26.2-3.9
			C180.5,328.3,190.1,317.5,203.8,321.1z M345.7,350c19.7-21.2,28.8-42.5,26.6-68c-1.7-20-17-35.7-32.9-34.5
			c-11.9,1-25.3,16.7-19.3,22.5c22.2,21.3,23.6,48.9,25.8,80H345.7z"/>
		<path class="st1" d="M97.7,364.5c2.2-29.7,17.8-47.6,36.9-62.7c21.1-16.9,46-24.4,73-27.5c20.9-2.5,41.1-5.9,62.4-1.8
			c30.1,5.9,51.1,29,50.9,60c0,17.4,0.4,34.2-6.5,51.7c-11.9,31.2-36.9,41.9-65.4,49.1c-4,1-11.9,3.9-12.9-3.9
			c-0.8-5.9,5.2-8.4,10.6-9.8c1.1-0.5,2.2-0.8,3.4-1c41,0.9,42.3-34.4,51.8-59.5c7.4-19.6-18.4-58.6-40-63.7
			c-44-10.2-87-11.5-124.2,21c-6.6,4.5-11.4,11.2-13.6,19C121.5,347.9,109,353.4,97.7,364.5z"/>
		<path class="st2" d="M126.5,236.2c5.9-20.1,23.8-28.7,39.6-36.9c41.6-22.1,85.3-28.1,129.4-4.3c-8.8,16.7-19.4,29-41.6,27.7
			c-22.1-1.1-44.2-0.4-66.1,2C166.8,227.1,148,239.3,126.5,236.2z"/>
		<path class="st1" d="M126.5,236.2c21.6,3.1,40.5-9.1,61.4-11.3c22-2.6,44.2-3.3,66.3-2.3c22.1,1.3,32.6-11,41.6-27.7
			c11.8,6.7,15.9,21.7,9.1,33.5c-0.3,0.6-0.7,1.2-1.1,1.8c-7.2,12.8-16.1,24.3-34.7,20.2c-46.9-10.3-95.8-5.8-140,12.7
			c-10.5,4.3-11.9-1.7-10.2-9C120.9,247.9,123.4,241.9,126.5,236.2z"/>
		<path class="st3" d="M203.8,321.1c-13.9-3.6-23.8,7.3-35.3,13.7c-8.3,4.6-20.1,14-26.2,3.9c-5.1-8.4,9.6-15.7,16.4-18.7
			c31.9-14,65.4-22.1,99.6-8.3c17.4,7,29.7,34.5,24.3,52.7c-3,6.3-5.5,12.9-7.4,19.6c-2,15.4-11.9,22.1-24.2,16.9
			s-12.4-18.5-8.7-30.2c6.7-21.2,2.4-36.4-13.4-45.8C221.7,320.5,213.6,320.9,203.8,321.1z"/>
		<path class="st4" d="M169.3,384.6c-3.3-13.7-5.5-13.7-21.5,0c-9.2-1-18.8,1.6-27.4-3.7c0-12.5,8.6-16.1,18.8-15.8
			c17.7,1.5,35.2-4.7,48.1-16.8c5.6-4.4,12.7-6.5,19.8-5.9c7.6-0.4,14.6,0.5,15.9,9.6c1.2,8.2-4.2,11.2-11.4,12.4
			c-5.4,0.9-10.3,3-10.9,9.6c-0.6,7.7,8.5,4.9,10.6,9.7c1.4,11.5-5.9,15.9-15.3,19.6C177.4,410.8,173.3,398.1,169.3,384.6z"/>
		<path class="st1" d="M346,350c-2.2-31.2-3.6-58.7-25.6-80c-5.9-5.9,7.7-21.6,19.3-22.5c15.9-1.2,31.2,14.6,32.9,34.5
			C374.8,307.4,365.7,328.7,346,350z"/>
		<path class="st5" d="M169.3,384.6c4,13.4,8.1,26.2,26.9,19c9.4-3.6,16.6-8,15.3-19.6c16.6,14.7,14.1,33.1-5.9,41.3
			c-14,5.6-29.7,5.4-39.1-5.9C158,409.8,163,395.9,169.3,384.6z"/>
		<path class="st5" d="M120.6,381.2c8.6,5.3,18.2,2.7,27.4,3.7c-0.6,7-1.8,14.4-7.9,17.8c-5.6,4.8-13.9,4.7-19.4-0.1
			c-5.9-5.8-6-15.3-0.2-21.3C120.5,381.3,120.5,381.2,120.6,381.2z"/>
	</g>
	<g id="_x23_ffffffff" transform="matrix(0.13718169,0,0,0.13718169,1.5018519,1.414961)">
		<path id="path13" class="st1" d="M4850.4,819c2.2-19.4,18.4-31,32.6-42.1c14.7,13.6,37.2,23.5,40.9,45.2
			c57.1,384.1,96.1,770.4,143.7,1155.7c-18.9,4.6-47.9,16.2-60.7-4.2c-12.1-49.1-16.4-99.8-21.9-150
			c-28.5-280.3-59.6-560.3-95.7-839.7c-18.4,15-13.3,41.3-18.4,62.1c-47.7,276.2-87.6,553.9-118.1,832.6
			c-3.9,35.8-7.9,72.2-20.7,106.2c-16.8-3.1-39.6,5.3-52.4-8.6c-12.2-31-17.4-64.2-23-96.9c-25.5-161.3-51.4-322.5-76.9-483.7
			c-17-114.4-49.3-225.6-71.1-339.1c-2.8-15.9-7.7-31.3-13.3-46.4c-48.9,296.5-92.6,593.8-141.9,890.2c-4.9,26.4-1.2,55.5-13.8,80.1
			c-19.2,9.5-41.4,2.4-60.8-2.8c62.7-381.1,124.6-762.2,178.4-1144.6c1.5-21.8,18-54.3,44-40.8c25,32.8,41.2,72.7,43.6,114.1
			c12.3,152.8,65.8,297.8,88,448.9c27.1,137.7,41.9,277.5,68.4,415.1c12.3-34.1,12-70.6,17.3-105.9
			C4755.5,1381.6,4798.9,1099.6,4850.4,819z"/>
		<path id="path15" class="st1" d="M5929.4,819.1c0.1-20.7,18.7-31.5,33.3-42.4c18,12.7,31.2,32.2,27.1,55.3
			c-10.8,125.9-2.9,252.2,1.5,378.2c4.6,226.6,4.3,453.4-11.3,679.7c-2.9,28.1-4.7,56.3-10.6,83.9c-14,16.2-47,14.9-62.3,2.9
			c-16.3-38.9-22.8-81.8-37.4-121.6c-71.1-275-120-555.5-198.6-828.7c-8.6-30.2-15-61.5-32.3-88.3c-6.5,223.3-0.9,446.9-1.7,670.3
			c1.9,122.9-2.4,246.2,11.3,368.6c-21.9,6-54.1,16.7-71.1-3.5c-2-351.5-1.7-703.4-4.4-1055c1-36-4-75,13.4-108.1
			c11-21.4,39.1-18.2,59-16.6c19.9,3.3,24.1,26.8,31.1,42.2c106.4,303.7,157.7,622.5,237.6,933.3c2.9,2.7,8.7,8,11.7,10.6
			c2.8-100.1,7.9-200.2,7.9-300.5C5940.5,1259.3,5907.6,1038.9,5929.4,819.1z"/>
		<path id="path17" class="st1" d="M6165.2,851.3c20.8-31.8,50.2-64,90.5-67.6c39.1-3.5,82.1-5.8,117.4,14.7
			c24.1,13.3,30.2,50.3,8.5,68.7c-37.4,5.2-74.9-22-112-7.1c-56.6,22.5-84.7,82.2-100.7,137.1c-58.4,209.8-50,430.2-37.9,645.4
			c6.6,77.2,15.4,158.7,58.5,225.3c21.4,41.3,74.9,33.3,112.5,25.1c39.1-13.6,52.1-59.3,62.3-95.2c20.7-97.7,21.8-198.3,20.6-297.8
			c-3.3-23.3,14.9-50.4,40.7-46c49.8,1.2,100.7-4.5,150,4.6c31.8,13.4,13.5,60.3-14.7,67.2c-36,9-74,2.6-110.8,5.1
			c4,92.9,1.2,187.1-20.8,277.8c-13.8,50.6-31.9,104.9-73.4,139.7c-31.6,17.3-64.9,42.9-103,33.8c-47.3-5-93.8-28.2-116.7-71.4
			c-53.7-86.7-65.7-191.1-71.9-290.9c-5.7-148-8.3-296.4,3.2-444.2C6076.7,1062.6,6101.3,947,6165.2,851.3z"/>
		<path id="path19" class="st1" d="M7133.5,785.9c28.7-17.9,50.7,19.3,46.8,45.1c-6.4,271,19.7,541.5,55.2,809.9
			c13.3,81.9,25,169.5,76.6,237.5c23.6,33.3,72.9,45,107.6,21.8c49.3-33.8,69-94,80.9-149.6c62.5-301.9,46.2-611.6,56.6-917.7
			c-0.3-19.9,12.7-43.5,35.9-39.8c27.1-4.9,28.5,31,28.5,49.2c-12.4,244.1-0.9,489.6-30.5,732.8c-14.7,128.8-27.7,269.4-114.3,372.9
			c-33.6,39.4-90.4,41.9-137,29.8c-54.7-19.2-93.3-67.6-114.9-119.9c-29.6-72.4-44.9-149.9-53.3-227.4
			c-37.9-264.6-55.7-532.2-56.5-799.5C7115.9,814.9,7119.2,795.5,7133.5,785.9z"/>
		<path id="path21" class="st1" d="M7806.8,809.8c32.9-38.1,86.3-27.6,130.8-27.1c54.9,0.8,107.5,27.4,145.9,65.6
			c19.3,19.6,18.3,55.3-7.2,68.9c-18,5.9-30.5-8.2-42.5-18.8c-45.3-46.2-118.7-50.5-178.3-38.5c-89.5,86-133.2,230.9-78.8,347.5
			c18,41.8,57.4,67.3,96,88c85.7,46.5,172.6,99.9,227.5,183.1c91.2,128.3,79.9,320.6-34.2,431.5c-54.2,52.3-133.6,89.3-209.5,68.7
			c-33.2-9.6-71.6-14.9-93.5-44.9c-75.6-84.6-83.4-205.2-82-313.3c3.1-37.5-7.9-85,29.3-109.2c18.8,12.4,33.6,30.7,32.3,54.6
			c4.2,101.2-12.3,216.4,53.9,302.4c31.7,46.7,96,48.4,145.5,35.3c116.9-35.8,180.2-175.4,149.6-290
			c-18.7-77.2-75.7-137.1-135.7-185.7c-59.1-48-136.8-67.8-191.7-121.6c-50.8-54.4-72.8-130.8-73.1-204
			C7689.9,994.9,7732.5,887.5,7806.8,809.8L7806.8,809.8z"/>
		<path id="path23" class="st1" d="M3579.3,930c30.4-59.4,70.4-122.2,136.9-144.8c78.5-10.1,157.4,15.1,227.9,47.9
			c71.7,34.2,118.5,102.9,142.8,176.6c27.4,7.3,60.4,8.5,79.9,31.9c18.8,23.2,33.8,49.5,44.6,77.4c36.1,102.3,57.9,209.6,63.2,317.9
			c1.5,41.5,0.4,86.1-21.8,122.7c-18,29.2-49,46.4-79.3,60.3c10.6,114.8,8.3,230.7,22.4,345.1l-5.2,8.7
			c-88.5,12.7-180.1-7.2-268,10.5c-15.2-7.4-35.4-14-35.8-34.3c-4-74.4,0.6-150.8-16.5-223.8c-17.2-47.4-77.8-36.9-115.2-24.3
			c-41.2,15.4-26.8,67.3-29.8,101.2c-5.7,56.6,1,114.3-9.2,170.4c-69.8,17-145.1-4.2-216,11.4c-21.8-14-41.9-34.8-40.7-62.8
			c-13.2-198-11.4-397.3,11.8-594.6C3482.5,1189.9,3520,1054.5,3579.3,930 M3659.9,903.1c-71.5,107.2-104.3,234.8-124.3,360.7
			c-31.9,215.7-34.8,434.8-20.2,652.1c48.1,0.2,96.1,0.3,144.2-0.1c6.7-80.5-8.6-164,17.6-241.9c27.3-46.8,89.9-45.7,137.3-51.5
			c33.4,2,83.2-11.9,102.1,24.9c36.5,84.7,19.9,178.8,29.2,268c61.7-1,123.3-0.2,184.9-0.8c-14.5-262.4-9.9-528.1-70.6-785.5
			c-17.7-69.4-30.2-146.6-83.9-198.7c-55.3-50.3-130.1-72.1-202.2-84.6C3726.9,835.2,3684.7,865.7,3659.9,903.1 M4104.8,1074.1
			c41.8,156,54.1,317.7,66.6,478.2c47-17.7,56.4-71.6,50.9-115.9c-11.5-109.8-25.4-222.2-72.9-323.2
			C4141.3,1093.7,4123.2,1082.4,4104.8,1074.1z"/>
		<path id="path25" class="st1" d="M5233.4,792.7c23.6-15.4,53.7-10.8,79.1-2.8c37.8,12.7,77.8,30.9,96.7,68.5
			c71,126,88.3,273.9,88.3,416.3c0.8,205.4-6.5,416.3-76.9,611.6c-13.7,42-43.2,79.6-84.7,96.6c-55.6,7.8-114.3-26.2-134.6-78.6
			c-29.8-69.7-45.4-144.7-58.2-219.1c-25.9-178.9-23-360.4-14.9-540.6c5.2-101.3,20-203.7,60.2-297.5
			C5198.4,825.5,5212.3,804.6,5233.4,792.7 M5250.5,864.4c-45.9,109-56,228.2-59.4,345.1c-6.8,211.5-8.7,428.4,55.3,632.3
			c9.4,26.4,23.6,63.7,57.6,62c33.3,1.6,53.6-31.1,63.9-58.5c17.2-49.2,28.2-100.3,36.6-151.7c29.5-188.3,37.3-380.5,17.9-570.3
			c-8.5-83.1-34.3-164-77.9-235.3C5331.4,851.2,5280.6,845.4,5250.5,864.4z"/>
		<path id="path27" class="st1" d="M3658.9,1002.6c92.4-20.7,198.3-33.8,284.6,13.3c34.1,70.1,44.8,149.3,45,226.6
			c-3.8,46.7-60.3,57.4-97.9,64.2c-82.5,9-173,21.3-249.1-20.3c-28.4-15.5-60.7-39.5-58.3-75.7c5.4-59.7,12.6-120.6,36.4-176.2
			C3625.9,1017.4,3642.6,1008.1,3658.9,1002.6 M3742.1,1038.9c-23.2,3.7-47.5,7-68.3,18.7c-28.9,36.9-40.9,85.4-40.8,131.8
			c-1.3,25,15.4,46.3,36.8,57.2c71.4,27.7,148.7,19.2,221.9,5.1c23-6.8,58.3-20.4,47.6-51.2c-12.6-46.3-11.5-99.4-39.9-139.5
			C3855.9,1026.1,3793.8,1038.2,3742.1,1038.9z"/>
	</g>
	<text transform="matrix(1 0 0 1 474.9783 397.8518)" class="st1 st6 st7">Detective</text>
	<text transform="matrix(1 0 0 1 474.5146 520.9484)" class="st1 st8 st9">Track suspects and more!</text>
</g>
</svg>
